<svg width="153" height="48" viewBox="0 0 153 48" fill="none" xmlns="http://www.w3.org/2000/svg">
<path d="M0 4C0 1.79086 1.79086 0 4 0H141C147.627 0 153 5.37258 153 12V44C153 46.2091 151.209 48 149 48H12C5.37258 48 0 42.6274 0 36V4Z" fill="#ED1C24"/>
<path fill-rule="evenodd" clip-rule="evenodd" d="M64.6458 1H4C2.34315 1 1 2.34315 1 4V36C1 42.0751 5.92487 47 12 47H48.3542L64.6458 1ZM16.201 33.9206C19.4658 37.9634 25.8818 38.336 31.5473 35.1674C27.4745 32.0524 25.669 27.1531 25.3677 25.9297C25.1874 26.0001 24.3699 26.4035 23.7969 29.509C23.224 32.6145 24.5759 33.1908 24.5759 33.1908L19.1877 32.9667C19.1877 32.9667 18.177 30.4182 20.192 24.7771C20.7951 23.3523 21.3925 21.9205 21.9161 20.6656C22.1523 20.0996 22.3738 19.5687 22.5738 19.0912C22.6063 19.0185 22.6297 18.9594 22.6535 18.8992C22.6864 18.8161 22.7201 18.7307 22.7798 18.6045C22.8828 18.3868 22.3743 18.4508 21.4923 18.6045C21.634 17.945 23.3077 16.9013 23.5073 16.7988C25.6059 15.7231 29.2302 14.8779 28.4255 16.8821C27.6208 18.8863 26.6809 21.3643 26.6809 21.3643C30.537 19.0143 34.908 16.1201 35.7835 14.7691C36.7877 13.2131 37.6632 18.3548 36.0732 20.5703C33.6843 23.8811 28.9857 24.7459 27.7116 24.9804C27.5369 25.0126 27.4265 25.0329 27.3955 25.046C27.5044 25.1412 27.6258 25.2476 27.7584 25.3637L27.7599 25.3651C29.5003 26.8898 33.1634 30.0988 35.8543 31.9486C36.3711 32.3001 36.8863 32.559 37.3927 32.7427C37.4627 32.7657 37.5343 32.7878 37.6072 32.8087L37.6021 32.8145C41.1582 33.9662 44.223 31.4876 44.223 31.4876C44.223 31.4876 44.2166 34.4842 42.7681 35.9697C41.4314 37.3407 38.132 39.0279 33.3606 36.3561C27.0207 40.1489 19.2066 39.333 14.9843 34.1063C10.2721 28.2731 11.8042 19.091 18.4284 13.6804C25.0525 8.26979 34.2323 8.60275 38.9446 14.4488C40.1591 15.9522 40.9583 17.6751 41.3625 19.4974C41.0846 19.9023 40.8152 20.3053 40.5524 20.7008C40.4351 18.7843 39.8029 16.997 38.6098 15.5245C34.786 10.8054 26.6812 11.0808 20.4948 16.1648C14.3084 21.2489 12.3901 29.2015 16.201 33.9206ZM36.2309 28.3042C35.8477 26.8397 35.6089 25.9268 33.7871 24.9895C34.8016 22.2144 38.443 22.7058 39.2234 24.8673C39.5724 24.3654 39.9274 23.8304 40.2941 23.2778C42.7616 19.5593 45.7625 15.0371 51.0814 14.3484C51.9564 14.3483 52.0135 14.7084 51.6042 15.1395L51.1994 15.5656C47.1861 19.7881 43.7971 23.3537 40.381 30.8495C40.1811 31.314 39.7897 31.961 38.6748 31.9276C37.3436 31.6618 36.7594 30.3345 36.6336 29.7041C36.4611 29.184 36.34 28.7214 36.2309 28.3042Z" fill="white"/>
<path d="M122.675 13.1106C122.532 12.9638 122.46 12.7812 122.46 12.5627C122.46 12.3479 122.532 12.1671 122.675 12.0203C122.818 11.8735 123.022 11.8 123.287 11.8C123.556 11.8 123.762 11.8735 123.905 12.0203C124.048 12.1671 124.12 12.3479 124.12 12.5627C124.12 12.7812 124.048 12.9638 123.905 13.1106C123.762 13.2574 123.556 13.3308 123.287 13.3308C123.022 13.3308 122.818 13.2574 122.675 13.1106Z" fill="white"/>
<path d="M123.991 19.9319H122.589V14.1472H123.991V19.9319Z" fill="white"/>
<path fill-rule="evenodd" clip-rule="evenodd" d="M87.0269 19.9319H83.8633V12.1116H86.855C87.7645 12.1116 88.4771 12.2763 88.9927 12.6057C89.5083 12.9351 89.7661 13.4615 89.7661 14.1848C89.7661 14.6145 89.6551 14.9654 89.4331 15.2375C89.2147 15.5061 88.9408 15.6959 88.6113 15.8069V15.8284C89.0195 15.9358 89.3507 16.1453 89.605 16.4568C89.8628 16.7683 89.9917 17.1747 89.9917 17.676C89.9917 18.4029 89.7196 18.9615 89.1753 19.3518C88.6346 19.7385 87.9185 19.9319 87.0269 19.9319ZM85.2974 16.3762V18.8738H87.0054C87.5389 18.8738 87.9292 18.7646 88.1763 18.5461C88.4269 18.3241 88.5522 18.0162 88.5522 17.6223C88.5522 17.232 88.4269 16.9277 88.1763 16.7092C87.9292 16.4872 87.5389 16.3762 87.0054 16.3762H85.2974ZM85.2974 13.175V15.3557H86.8335C87.3634 15.3557 87.7448 15.2608 87.9775 15.071C88.2139 14.8777 88.332 14.6055 88.332 14.2546C88.332 13.9001 88.2139 13.6316 87.9775 13.449C87.7448 13.2664 87.3634 13.175 86.8335 13.175H85.2974Z" fill="white"/>
<path fill-rule="evenodd" clip-rule="evenodd" d="M90.98 17.1228C90.98 18.0072 91.2557 18.7234 91.8071 19.2712C92.3621 19.8191 93.1427 20.093 94.1489 20.093C94.772 20.093 95.3073 19.9802 95.7549 19.7546C96.2061 19.5255 96.5301 19.2587 96.7271 18.9543L95.7764 18.2615C95.6045 18.4763 95.3807 18.6607 95.105 18.8147C94.8328 18.9651 94.5106 19.0403 94.1382 19.0403C93.5366 19.0403 93.0926 18.8648 92.8062 18.5139C92.5588 18.2109 92.4182 17.8331 92.3845 17.3806H96.8237V16.8542C96.8237 15.9698 96.5749 15.2716 96.0771 14.7595C95.583 14.2439 94.8866 13.9861 93.9878 13.9861C93.0962 13.9861 92.3711 14.26 91.8125 14.8079C91.2575 15.3557 90.98 16.0701 90.98 16.9509V17.1228ZM95.4326 16.446H92.4124C92.4692 16.0984 92.5933 15.8012 92.7847 15.5544C93.0568 15.2035 93.4525 15.0281 93.9717 15.0281C94.4801 15.0281 94.8507 15.1588 95.0835 15.4202C95.3162 15.6816 95.4326 16.011 95.4326 16.4084V16.446Z" fill="white"/>
<path d="M97.6294 18.1594V18.2078C97.6294 18.7914 97.8621 19.2515 98.3276 19.5881C98.7967 19.9247 99.4735 20.093 100.358 20.093C101.246 20.093 101.917 19.9265 102.372 19.5935C102.83 19.2569 103.06 18.8129 103.06 18.2615C103.06 17.7638 102.882 17.3735 102.528 17.0906C102.173 16.8041 101.624 16.5964 100.879 16.4675C100.134 16.335 99.6615 16.2115 99.4609 16.0969C99.264 15.9823 99.1655 15.8266 99.1655 15.6296C99.1655 15.4363 99.2568 15.2805 99.4395 15.1624C99.6221 15.0406 99.9193 14.9797 100.331 14.9797C100.746 14.9797 101.051 15.0531 101.244 15.2C101.438 15.3432 101.534 15.5419 101.534 15.7961V15.866H102.915V15.8015C102.915 15.2501 102.68 14.8097 102.211 14.4802C101.745 14.1472 101.121 13.9807 100.336 13.9807C99.5558 13.9807 98.9364 14.1418 98.478 14.4641C98.0197 14.7828 97.7905 15.2017 97.7905 15.7209C97.7905 16.19 97.9678 16.566 98.3223 16.8489C98.6803 17.1318 99.2354 17.3412 99.9873 17.4773C100.711 17.6062 101.171 17.7279 101.368 17.8425C101.565 17.9571 101.663 18.1272 101.663 18.3528C101.663 18.5855 101.55 18.7681 101.325 18.9006C101.099 19.0295 100.777 19.094 100.358 19.094C99.939 19.094 99.6095 19.0224 99.3696 18.8792C99.1333 18.7359 99.0151 18.5175 99.0151 18.2239V18.1594H97.6294Z" fill="white"/>
<path d="M103.489 15.1785H104.531V18.3313C104.531 18.94 104.692 19.3858 105.015 19.6687C105.337 19.9516 105.759 20.093 106.282 20.093C106.472 20.093 106.647 20.0769 106.809 20.0447C106.973 20.0125 107.102 19.9731 107.195 19.9265V18.8953C107.099 18.9275 107 18.9543 106.9 18.9758C106.803 18.9973 106.703 19.0081 106.599 19.0081C106.377 19.0081 106.211 18.9561 106.1 18.8523C105.989 18.7449 105.933 18.5623 105.933 18.3044V15.1785H107.238V14.1472H105.933V12.8796H104.537V14.1472H103.489V15.1785Z" fill="white"/>
<path fill-rule="evenodd" clip-rule="evenodd" d="M111.116 19.9319H112.566V17.0906H114.151C115.125 17.0942 115.871 16.8739 116.391 16.4299C116.913 15.9823 117.175 15.37 117.175 14.593C117.175 13.8124 116.913 13.2037 116.391 12.7668C115.868 12.33 115.121 12.1116 114.151 12.1116H111.116V19.9319ZM112.566 15.9895V13.218H114.081C114.69 13.218 115.116 13.3451 115.359 13.5994C115.606 13.85 115.73 14.1812 115.73 14.593C115.73 15.0084 115.606 15.345 115.359 15.6028C115.116 15.8606 114.69 15.9895 114.081 15.9895H112.566Z" fill="white"/>
<path d="M118.271 19.9319H119.672V16.1184C119.791 15.8713 119.971 15.6654 120.215 15.5007C120.458 15.3324 120.747 15.2483 121.08 15.2483C121.176 15.2483 121.266 15.2519 121.348 15.259C121.434 15.2662 121.516 15.2769 121.595 15.2913V14.0667C121.552 14.0487 121.484 14.0326 121.391 14.0183C121.302 14.0004 121.216 13.9915 121.133 13.9915C120.804 13.9915 120.51 14.081 120.252 14.26C119.998 14.4355 119.798 14.6467 119.651 14.8938H119.624L119.586 14.1472H118.271V19.9319Z" fill="white"/>
<path d="M126.112 19.2766C125.557 18.7323 125.28 18.0144 125.28 17.1228V16.9509C125.28 16.0593 125.557 15.3432 126.112 14.8025C126.667 14.2582 127.417 13.9861 128.363 13.9861C129.251 13.9861 129.926 14.1956 130.388 14.6145C130.85 15.0299 131.09 15.5097 131.107 16.054V16.113H129.716V16.0593C129.713 15.78 129.604 15.5419 129.389 15.345C129.177 15.148 128.834 15.0496 128.357 15.0496C127.799 15.0496 127.385 15.225 127.117 15.5759C126.852 15.9233 126.719 16.3673 126.719 16.908V17.1658C126.719 17.71 126.852 18.1576 127.117 18.5085C127.385 18.8559 127.797 19.0295 128.352 19.0295C128.835 19.0295 129.183 18.9311 129.394 18.7341C129.609 18.5336 129.716 18.2937 129.716 18.0144L129.722 17.9661H131.107V18.009C131.107 18.5533 130.871 19.0367 130.398 19.4592C129.929 19.8818 129.251 20.093 128.363 20.093C127.417 20.093 126.667 19.8209 126.112 19.2766Z" fill="white"/>
<path fill-rule="evenodd" clip-rule="evenodd" d="M132.746 19.2712C132.194 18.7234 131.918 18.0072 131.918 17.1228V16.9509C131.918 16.0701 132.196 15.3557 132.751 14.8079C133.31 14.26 134.035 13.9861 134.926 13.9861C135.825 13.9861 136.521 14.2439 137.016 14.7595C137.513 15.2716 137.762 15.9698 137.762 16.8542V17.3806H133.323C133.357 17.8331 133.497 18.2109 133.745 18.5139C134.031 18.8648 134.475 19.0403 135.077 19.0403C135.449 19.0403 135.771 18.9651 136.043 18.8147C136.319 18.6607 136.543 18.4763 136.715 18.2615L137.666 18.9543C137.469 19.2587 137.145 19.5255 136.693 19.7546C136.246 19.9802 135.71 20.093 135.087 20.093C134.081 20.093 133.301 19.8191 132.746 19.2712ZM133.351 16.446H136.371V16.4084C136.371 16.011 136.255 15.6816 136.022 15.4202C135.789 15.1588 135.419 15.0281 134.91 15.0281C134.391 15.0281 133.995 15.2035 133.723 15.5544C133.532 15.8012 133.408 16.0984 133.351 16.446Z" fill="white"/>
<path d="M75.6785 30.5359C75.6085 30.3539 75.7205 30.2139 75.9445 30.2139H77.6805C77.9745 30.2139 78.0725 30.3259 78.0165 30.6759L77.5545 33.2799C77.3165 34.6799 75.1185 35.0719 73.7465 35.0719C70.8065 35.0719 69.2945 33.2799 69.9245 29.7939C70.4425 26.8539 72.4865 24.9919 75.4545 24.9919C76.8125 24.9919 77.6665 25.4399 78.1145 25.8599C78.3665 26.0839 78.3805 26.1959 78.2265 26.5459L77.6945 27.8759C77.6525 28.0159 77.5545 28.0719 77.4145 28.0719H77.3305C77.1625 28.0719 77.1205 28.0299 77.1205 27.8759C77.0645 26.7139 76.6025 25.8179 75.4125 25.8179C73.9565 25.8179 72.6965 26.9939 72.1505 30.1439C71.5485 33.5039 72.4025 34.3719 73.7885 34.3719C74.9085 34.3719 75.5665 33.8819 75.7065 33.0699L75.8185 32.3979C76.0145 31.3339 75.8325 30.8999 75.6785 30.5359Z" fill="white"/>
<path d="M80.3049 27.6939C80.0529 27.6939 79.9829 27.8339 80.0109 28.0439C80.0949 28.4919 80.0809 29.3179 79.9269 30.1999L79.5069 32.6219C79.1849 34.4279 80.0529 35.0019 81.3409 35.0019C82.2929 35.0019 83.1049 34.5259 83.6509 33.6579C83.6649 34.5539 84.0989 34.9739 84.9249 34.9739H85.2329C85.4149 34.9739 85.4989 34.9039 85.5129 34.7779C85.5209 34.738 85.5175 34.6616 85.5125 34.5484C85.4998 34.2648 85.4769 33.7503 85.5969 32.9999L86.1289 29.9759L86.1632 29.783C86.2819 29.1141 86.358 28.6857 86.5629 28.0579C86.6609 27.7779 86.6329 27.6939 86.3669 27.6939H84.5609C84.3229 27.6939 84.2389 27.8339 84.2809 28.0439C84.3649 28.4919 84.3369 29.3179 84.1829 30.1999L84.1689 30.2979C83.7629 32.5659 83.2169 33.4199 82.6569 33.8259C82.3909 34.0359 82.1809 34.0779 81.9289 34.0779C81.3829 34.0779 81.2289 33.5039 81.4109 32.4959L81.9289 29.5419C82.0269 29.0099 82.1109 28.6039 82.2929 28.0579C82.3769 27.7779 82.3629 27.6939 82.1109 27.6939H80.3049Z" fill="white"/>
<path fill-rule="evenodd" clip-rule="evenodd" d="M94.5245 27.6939C93.9085 27.6939 93.4885 27.8479 93.1945 28.2539C92.9425 27.8479 92.4105 27.5399 91.6685 27.5399C89.7365 27.5399 88.1125 28.9819 87.6645 31.5719C87.2025 34.1759 88.3645 35.0299 89.7785 35.0299C90.4785 35.0299 90.9685 34.8199 91.4585 34.4279C91.6825 34.2459 91.8925 34.0079 92.0605 33.7139C92.0885 34.5679 92.5085 34.9739 93.3205 34.9739H93.6425C93.8245 34.9739 93.9085 34.9039 93.9225 34.7779C93.93 34.7368 93.9254 34.6606 93.9188 34.5491C93.9006 34.2435 93.8667 33.6727 94.0205 32.8319L94.4825 30.1999C94.6365 29.3459 94.9165 28.4919 95.1405 28.0439C95.2665 27.8339 95.2385 27.6939 95.0005 27.6939H94.5245ZM90.4505 34.0779C89.7085 34.0779 89.3445 33.4339 89.6805 31.5719C90.0445 29.4579 90.8005 28.3939 91.7385 28.3939C92.2845 28.3939 92.6485 28.6319 92.7885 29.0659L92.3825 31.4039C91.9765 33.2519 91.3745 34.0779 90.4505 34.0779Z" fill="white"/>
<path d="M100.23 29.0379C100.51 29.0379 100.678 29.1639 100.734 29.3879C100.762 29.5139 100.818 29.5279 100.93 29.5279H101.084C101.196 29.5279 101.224 29.4859 101.266 29.3739L101.756 28.0159C101.812 27.8199 101.784 27.7359 101.672 27.6659C101.546 27.5679 101.378 27.5399 101.168 27.5399C100.132 27.5399 99.2781 28.3099 98.7041 29.7239C98.9841 28.0719 98.7321 27.6939 97.5841 27.6939H97.1221C96.8701 27.6939 96.7861 27.8339 96.8281 28.0439C96.9121 28.4919 96.8841 29.3459 96.7301 30.1999L96.3381 32.3979L96.3244 32.4782C96.14 33.5588 96.0941 33.8276 95.8481 34.4699C95.7361 34.7919 95.7361 34.9319 96.0161 34.9319H97.6821C97.9761 34.9319 98.0041 34.7919 97.9901 34.4699C97.9761 33.9799 98.0041 33.6859 98.1021 33.1119L98.2701 32.1739C98.6201 30.1719 99.3341 29.0379 100.23 29.0379Z" fill="white"/>
<path fill-rule="evenodd" clip-rule="evenodd" d="M109.044 27.6939C108.428 27.6939 108.008 27.8479 107.714 28.2539C107.462 27.8479 106.93 27.5399 106.188 27.5399C104.256 27.5399 102.632 28.9819 102.184 31.5719C101.722 34.1759 102.884 35.0299 104.298 35.0299C104.998 35.0299 105.488 34.8199 105.978 34.4279C106.202 34.2459 106.412 34.0079 106.58 33.7139C106.608 34.5679 107.028 34.9739 107.84 34.9739H108.162C108.344 34.9739 108.428 34.9039 108.442 34.7779C108.45 34.7368 108.445 34.6603 108.438 34.5487C108.42 34.2431 108.386 33.6727 108.54 32.8319L109.002 30.1999C109.156 29.3459 109.436 28.4919 109.66 28.0439C109.786 27.8339 109.758 27.6939 109.52 27.6939H109.044ZM104.97 34.0779C104.228 34.0779 103.864 33.4339 104.2 31.5719C104.564 29.4579 105.32 28.3939 106.258 28.3939C106.804 28.3939 107.168 28.6319 107.308 29.0659L106.902 31.4039C106.496 33.2519 105.894 34.0779 104.97 34.0779Z" fill="white"/>
<path d="M111.642 27.6939C111.404 27.6939 111.32 27.8339 111.348 28.0439C111.432 28.4919 111.418 29.3459 111.264 30.1999L110.872 32.3979C110.676 33.5459 110.62 33.8119 110.368 34.4699C110.256 34.7919 110.256 34.9319 110.536 34.9319H112.202C112.496 34.9319 112.524 34.7919 112.51 34.4699C112.524 33.8119 112.552 33.5459 112.748 32.3979L112.804 32.0759C113.182 29.9619 113.966 28.5479 114.974 28.5479C115.562 28.5479 115.716 29.0939 115.478 30.4659L115.1 32.5799C114.932 33.5459 114.862 33.8539 114.638 34.4699C114.512 34.7919 114.526 34.9319 114.806 34.9319H116.472C116.766 34.9319 116.794 34.7919 116.794 34.4699C116.794 33.8119 116.836 33.5459 117.032 32.3979L117.396 30.3399C117.774 28.2259 117.032 27.5399 115.884 27.5399C114.792 27.5399 113.882 28.1139 113.308 29.0659C113.406 27.9599 113.084 27.6939 112.104 27.6939H111.642Z" fill="white"/>
<path d="M119.703 27.6939C119.409 27.6939 119.367 27.7779 119.325 28.0019L119.297 28.1559C119.255 28.3659 119.241 28.4499 119.563 28.4499H120.095L119.339 32.7339C119.017 34.5539 119.955 35.0159 121.103 35.0159C121.677 35.0159 122.237 34.8339 122.573 34.6239C122.727 34.5399 122.755 34.4419 122.713 34.3019L122.699 34.1899C122.657 34.0779 122.573 34.0639 122.447 34.1339C122.251 34.2179 122.069 34.2599 121.775 34.2599C121.383 34.2599 121.033 33.9659 121.243 32.7479L121.509 31.2779H121.495L121.985 28.4499H123.245C123.483 28.4499 123.539 28.4219 123.595 28.1419L123.623 27.9879C123.665 27.7499 123.623 27.6939 123.399 27.6939H122.125L122.405 26.0699C122.447 25.8179 122.391 25.7759 122.125 25.7759C121.903 25.7759 121.856 25.8731 121.782 26.0268C121.775 26.041 121.768 26.0557 121.761 26.0708C121.752 26.0886 121.743 26.107 121.733 26.1259C121.355 27.0639 120.557 27.6939 119.703 27.6939Z" fill="white"/>
<path fill-rule="evenodd" clip-rule="evenodd" d="M127.994 27.5399C125.824 27.5399 124.41 29.1639 124.032 31.2919C123.598 33.7979 124.984 35.0299 127.056 35.0299C128.022 35.0299 128.988 34.7779 129.59 34.3999C129.73 34.3019 129.772 34.2319 129.73 34.0919L129.66 33.9379C129.618 33.8399 129.534 33.8259 129.38 33.8959C128.848 34.1339 128.358 34.2879 127.7 34.2879C126.37 34.2879 125.782 33.6579 126.02 31.6699H126.552C129.044 31.6699 130.122 31.0539 130.374 29.6399C130.612 28.2819 129.73 27.5399 127.994 27.5399ZM127.868 28.1839C128.526 28.1839 128.82 28.7019 128.68 29.4999C128.498 30.4939 127.938 30.9839 126.636 30.9839H126.118C126.524 28.7999 127.21 28.1839 127.868 28.1839Z" fill="white"/>
<path fill-rule="evenodd" clip-rule="evenodd" d="M135.582 27.5399C133.412 27.5399 131.998 29.1639 131.62 31.2919C131.186 33.7979 132.572 35.0299 134.644 35.0299C135.61 35.0299 136.576 34.7779 137.178 34.3999C137.318 34.3019 137.36 34.2319 137.318 34.0919L137.248 33.9379C137.206 33.8399 137.122 33.8259 136.968 33.8959C136.436 34.1339 135.946 34.2879 135.288 34.2879C133.958 34.2879 133.37 33.6579 133.608 31.6699H134.14C136.632 31.6699 137.71 31.0539 137.962 29.6399C138.2 28.2819 137.318 27.5399 135.582 27.5399ZM135.456 28.1839C136.114 28.1839 136.408 28.7019 136.268 29.4999C136.086 30.4939 135.526 30.9839 134.224 30.9839H133.706C134.112 28.7999 134.798 28.1839 135.456 28.1839Z" fill="white"/>
</svg>
