<svg width="48" height="48" viewBox="0 0 48 48" fill="none" xmlns="http://www.w3.org/2000/svg">
<path d="M41 41C41 42.1046 36.5228 43 31 43C25.4772 43 21 42.1046 21 41C21 39.8954 25.4772 39 31 39C36.5228 39 41 39.8954 41 41Z" fill="black" fill-opacity="0.08"/>
<path fill-rule="evenodd" clip-rule="evenodd" d="M9 7C7.34315 7 6 8.34315 6 10V32C6 33.6569 7.34315 35 9 35H27.0711L34.3945 40.5724C35.0528 41.0734 36 40.6039 36 39.7766V35H39C40.6569 35 42 33.6569 42 32V10C42 8.34315 40.6569 7 39 7H9Z" fill="white"/>
<path d="M14 18.5C14 18.2239 14.2239 18 14.5 18H33.5C33.7761 18 34 18.2239 34 18.5C34 18.7761 33.7761 19 33.5 19H14.5C14.2239 19 14 18.7761 14 18.5Z" fill="#ED1C24"/>
<path d="M14.5 14C14.2239 14 14 14.2239 14 14.5C14 14.7761 14.2239 15 14.5 15H33.5C33.7761 15 34 14.7761 34 14.5C34 14.2239 33.7761 14 33.5 14H14.5Z" fill="#ED1C24"/>
<path d="M14 22.5C14 22.2239 14.2239 22 14.5 22H33.5C33.7761 22 34 22.2239 34 22.5C34 22.7761 33.7761 23 33.5 23H14.5C14.2239 23 14 22.7761 14 22.5Z" fill="#ED1C24"/>
<path d="M14.5 26C14.2239 26 14 26.2239 14 26.5C14 26.7761 14.2239 27 14.5 27H24.5C24.7761 27 25 26.7761 25 26.5C25 26.2239 24.7761 26 24.5 26H14.5Z" fill="#ED1C24"/>
<path fill-rule="evenodd" clip-rule="evenodd" d="M36 35H39C40.6569 35 42 33.6569 42 32V10C42 8.34315 40.6569 7 39 7H9C7.34315 7 6 8.34315 6 10V32C6 33.6569 7.34315 35 9 35H27.0711L34.3945 40.5724C35.0528 41.0734 36 40.6039 36 39.7766V35ZM27.4083 34L35 39.7766L35 34H39C40.1046 34 41 33.1046 41 32V10C41 8.89543 40.1046 8 39 8H9C7.89543 8 7 8.89543 7 10V32C7 33.1046 7.89543 34 9 34H27.4083Z" fill="#ED1C24"/>
</svg>
