<svg width="48" height="48" viewBox="0 0 48 48" fill="none" xmlns="http://www.w3.org/2000/svg">
<path d="M5.71591 25.284C5.89997 24.8952 6.00292 24.4605 6.00292 24.0018C6.00292 23.7644 5.97534 23.5334 5.92319 23.3118L6.49086 17.9108C6.72178 15.7138 8.69002 14.1199 10.8871 14.3508L39.5934 17.368C41.7905 17.5989 43.3843 19.5672 43.1534 21.7642L41.5812 36.7221C41.3503 38.9191 39.3821 40.513 37.185 40.2821L8.47869 37.2649C6.28166 37.034 4.6878 35.0658 4.91872 32.8687L5.71591 25.284Z" fill="black" fill-opacity="0.08"/>
<path d="M4 13.93C4.00715 13.9532 4.01077 13.9766 4.01077 14V19.7664C4.01077 20.6116 4.59892 21.3256 5.18004 21.9393C5.68912 22.4769 6.00135 23.2029 6.00135 24.0017C6.00135 24.8005 5.68912 25.5265 5.18004 26.0641C4.59892 26.6778 4.01077 27.3918 4.01077 28.237V34C4.01077 34.0234 4.00715 34.0468 4 34.07C4.03721 35.6945 5.36575 37 6.9992 37H40.9992C42.6561 37 43.9992 35.6569 43.9992 34V14C43.9992 12.3431 42.6561 11 40.9992 11H6.9992C5.36575 11 4.03721 12.3055 4 13.93Z" fill="white"/>
<path d="M17.6195 19.4965C17.6649 19.6158 18.6181 21.9756 19.0696 23.0724L15.9031 23.0754L15.2852 21.8902C15.1656 21.6608 14.9049 21.654 14.8005 21.6513L14.6328 21.6514C14.5372 21.6515 14.4602 21.6831 14.4046 21.7444C14.3638 21.789 14.3185 21.8679 14.3297 21.9922C14.3346 22.0448 14.4077 22.348 14.4986 22.7252C14.5986 23.1398 14.7202 23.6442 14.7962 24.0025C14.7538 24.211 14.5826 24.9574 14.4617 25.4847C14.3959 25.7716 14.3449 25.9936 14.3378 26.0286C14.3165 26.1251 14.337 26.217 14.3946 26.2865C14.4512 26.3569 14.5394 26.3968 14.6368 26.3967L14.8057 26.3965C15.0525 26.3936 15.1795 26.3712 15.2888 26.1568L15.9048 24.9706L19.0714 24.9679C18.6983 25.8774 17.6854 28.3498 17.6271 28.5039C17.5632 28.6755 17.606 28.7915 17.6524 28.8592C17.6887 28.912 17.775 29.0001 17.9448 28.9999L17.9884 28.998C18.0737 28.9905 18.3409 28.9643 18.5469 28.941C18.7992 28.9129 18.9058 28.7792 18.9725 28.6948C19.0179 28.6391 21.3755 25.6256 21.8917 24.9655L24.7147 24.9632C25.7602 24.9623 25.9836 24.3512 25.9833 24.0135C25.983 23.6758 25.7586 23.0671 24.713 23.0679L21.8901 23.0703C21.2817 22.2955 20.1248 20.8016 19.4591 19.9422C19.1652 19.5627 18.967 19.3067 18.9543 19.2913C18.8967 19.2189 18.7904 19.0854 18.5385 19.0579C18.3325 19.0348 18.0662 19.0091 17.98 19.0017L17.9363 18.9999C17.7675 19.0001 17.6804 19.0892 17.6442 19.1421C17.597 19.209 17.5553 19.3259 17.6195 19.4965Z" fill="#ED1C24"/>
<path d="M34.7323 15.9001C35.1373 15.9004 35.4658 15.5723 35.4661 15.1672C35.4663 14.7622 35.1382 14.4337 34.7332 14.4335C34.3282 14.4332 33.9996 14.7614 33.9994 15.1664C33.9992 15.5714 34.3273 15.8999 34.7323 15.9001Z" fill="#ED1C24"/>
<path d="M35.4661 18.1008C35.4658 18.5058 35.1373 18.834 34.7323 18.8337C34.3273 18.8335 33.9992 18.505 33.9994 18.1C33.9996 17.695 34.3282 17.3668 34.7332 17.3671C35.1382 17.3673 35.4663 17.6958 35.4661 18.1008Z" fill="#ED1C24"/>
<path d="M34.7323 21.7673C35.1373 21.7676 35.4658 21.4394 35.4661 21.0344C35.4663 20.6294 35.1382 20.3009 34.7332 20.3007C34.3282 20.3004 33.9996 20.6286 33.9994 21.0336C33.9992 21.4386 34.3273 21.7671 34.7323 21.7673Z" fill="#ED1C24"/>
<path d="M35.4661 23.9675C35.4658 24.3725 35.1373 24.7007 34.7323 24.7004C34.3273 24.7002 33.9992 24.3717 33.9994 23.9667C33.9996 23.5617 34.3282 23.2335 34.7332 23.2338C35.1382 23.234 35.4663 23.5625 35.4661 23.9675Z" fill="#ED1C24"/>
<path d="M34.7323 27.634C35.1373 27.6343 35.4658 27.3061 35.4661 26.9011C35.4663 26.4961 35.1382 26.1676 34.7332 26.1674C34.3282 26.1671 33.9996 26.4952 33.9994 26.9003C33.9992 27.3053 34.3273 27.6338 34.7323 27.634Z" fill="#ED1C24"/>
<path d="M35.4661 29.8342C35.4658 30.2392 35.1373 30.5674 34.7323 30.5671C34.3273 30.5669 33.9992 30.2384 33.9994 29.8334C33.9996 29.4284 34.3282 29.1002 34.7332 29.1005C35.1382 29.1007 35.4663 29.4292 35.4661 29.8342Z" fill="#ED1C24"/>
<path d="M34.7323 33.5007C35.1373 33.501 35.4658 33.1728 35.4661 32.7678C35.4663 32.3628 35.1382 32.0343 34.7332 32.0341C34.3282 32.0338 33.9996 32.3619 33.9994 32.767C33.9992 33.172 34.3273 33.5005 34.7323 33.5007Z" fill="#ED1C24"/>
<path fill-rule="evenodd" clip-rule="evenodd" d="M4.00781 14C4.00781 12.3431 5.35096 11 7.00781 11H41.0078C42.6647 11 44.0078 12.3431 44.0078 14V34C44.0078 35.6569 42.6647 37 41.0078 37H7.00781C5.35096 37 4.00781 35.6569 4.00781 34V28.237C4.00781 27.3918 4.59595 26.6778 5.17707 26.0641C5.68616 25.5265 5.99839 24.8005 5.99839 24.0017C5.99839 23.2029 5.68616 22.4769 5.17707 21.9393C4.59595 21.3256 4.00781 20.6116 4.00781 19.7664V14ZM7.00781 12C5.90324 12 5.00781 12.8954 5.00781 14L5.00781 19.7664C5.00781 20.1668 5.2984 20.6131 5.90318 21.2517C6.58112 21.9677 6.99839 22.937 6.99839 24.0017C6.99839 25.0664 6.58112 26.0357 5.90318 26.7517C5.2984 27.3903 5.00781 27.8366 5.00781 28.237L5.00781 34C5.00781 35.1046 5.90324 36 7.00781 36H34.0492C34.017 35.9173 33.9993 35.8274 33.9994 35.7333C33.9996 35.3283 34.3282 35.0001 34.7332 35.0004C35.1382 35.0006 35.4663 35.3291 35.4661 35.7341C35.466 35.8279 35.4484 35.9176 35.4162 36H41.0078C42.1124 36 43.0078 35.1046 43.0078 34V14C43.0078 12.8954 42.1124 12 41.0078 12L35.4281 12C35.4528 12.0735 35.4661 12.1523 35.4661 12.2341C35.4658 12.6391 35.1373 12.9673 34.7323 12.967C34.3273 12.9668 33.9992 12.6383 33.9994 12.2333C33.9994 12.1517 34.0128 12.0733 34.0374 12L7.00781 12Z" fill="#ED1C24"/>
</svg>
