<svg width="48" height="48" viewBox="0 0 48 48" fill="none" xmlns="http://www.w3.org/2000/svg">
<path d="M40 40.5C40 41.3284 35.5228 42 30 42C24.4772 42 20 41.3284 20 40.5C20 39.6716 24.4772 39 30 39C35.5228 39 40 39.6716 40 40.5Z" fill="black" fill-opacity="0.08"/>
<path d="M4 8C4 6.34315 5.34315 5 7 5H26C27.6569 5 29 6.34315 29 8V15H39C40.6569 15 42 16.3431 42 18V31C42 32.6569 40.6569 34 39 34H37V38.7854C37 39.199 36.5264 39.4337 36.1972 39.1833L29.3853 34H20C18.3431 34 17 32.6569 17 31V24H16.6147L10.6055 28.5724C9.94721 29.0734 9 28.6039 9 27.7766V24H7C5.34315 24 4 22.6569 4 21V8Z" fill="white"/>
<path fill-rule="evenodd" clip-rule="evenodd" d="M16.5 19C17.1347 19 17.7388 18.854 18.2864 18.5905L19.4718 19.9585C19.7249 20.2506 20.167 20.2822 20.4592 20.0291C20.7514 19.7759 20.783 19.3338 20.5298 19.0416L19.4407 17.7848C20.3957 16.8679 21 15.5124 21 14C21 11.2386 18.9853 9 16.5 9C14.0147 9 12 11.2386 12 14C12 16.7614 14.0147 19 16.5 19ZM16.5 17.6C16.7759 17.6 17.0502 17.555 17.3149 17.4694L16.8722 16.9585C16.619 16.6663 16.6506 16.2242 16.9428 15.971C17.2349 15.7179 17.677 15.7495 17.9302 16.0416L18.5214 16.7239C19.166 16.0863 19.6 15.1374 19.6 14C19.6 11.8694 18.077 10.4 16.5 10.4C14.923 10.4 13.4 11.8694 13.4 14C13.4 16.1306 14.923 17.6 16.5 17.6Z" fill="#ED1C24"/>
<path fill-rule="evenodd" clip-rule="evenodd" d="M29 15V8C29 6.34315 27.6569 5 26 5H7C5.34315 5 4 6.34315 4 8V21C4 22.6569 5.34315 24 7 24H9V27.7766C9 28.6039 9.94721 29.0734 10.6055 28.5724L16.6147 24H17V31C17 32.6569 18.3431 34 20 34H29.3853L36.1972 39.1833C36.5264 39.4337 37 39.199 37 38.7854V34H39C40.6569 34 42 32.6569 42 31V18C42 16.3431 40.6569 15 39 15H29ZM10 27.7766L10 23H7C5.89543 23 5 22.1046 5 21V8C5 6.89543 5.89543 6 7 6H26C27.1046 6 28 6.89543 28 8V21C28 21.0664 27.9968 21.132 27.9904 21.1968C27.9606 21.5022 27.8621 21.7876 27.7105 22.0371C27.7001 22.0542 27.6895 22.0711 27.6786 22.0878C27.322 22.6368 26.7034 23 26 23H16.2775L10 27.7766ZM29 16V19.4194C29.5929 19.1543 30.378 19.3869 30.6336 20.1171L33.6617 28.7687C33.7894 29.1336 33.5971 29.5329 33.2322 29.6606C32.8673 29.7883 32.468 29.5961 32.3403 29.2312L31.6994 27.4H27.3026L26.6617 29.2312C26.534 29.5961 26.1346 29.7883 25.7697 29.6606C25.4048 29.5329 25.2126 29.1336 25.3403 28.7687L27.0793 23.8C26.7444 23.9292 26.3805 24 26 24H18V31C18 32.1046 18.8954 33 20 33H29.7225L36 37.7766V33H39C40.1046 33 41 32.1046 41 31V18C41 16.8954 40.1046 16 39 16H29ZM31.2094 26L29.501 21.1189L27.7926 26H31.2094Z" fill="#ED1C24"/>
</svg>
