<svg width="48" height="48" viewBox="0 0 48 48" fill="none" xmlns="http://www.w3.org/2000/svg">
<path d="M8 21C8 19.3431 9.34315 18 11 18H33C34.6569 18 36 19.3431 36 21V40C36 41.6569 34.6569 43 33 43H11C9.34315 43 8 41.6569 8 40V21Z" fill="black" fill-opacity="0.08"/>
<path d="M40.9436 5.18746C39.8078 4.53167 38.3554 4.92084 37.6996 6.0567L36.806 7.60433C36.3036 7.22497 35.6781 7 35 7H9C7.34315 7 6 8.34314 6 10V37C6 38.6569 7.34315 40 9 40H35C36.6569 40 38 38.6569 38 37V15.0356L41.8129 8.4315C42.4686 7.29565 42.0795 5.84324 40.9436 5.18746Z" fill="white"/>
<path d="M13 29.5C13 29.2238 13.2239 29 13.5 29H20.5C20.7761 29 21 29.2238 21 29.5C21 29.7761 20.7761 30 20.5 30H13.5C13.2239 30 13 29.7761 13 29.5Z" fill="#ED1C24"/>
<path fill-rule="evenodd" clip-rule="evenodd" d="M41.1928 4.75428C39.8178 3.96043 38.0596 4.43154 37.2657 5.80653L36.3823 7.33671C35.9686 7.12157 35.4985 6.99999 35 6.99999H9C7.34315 6.99999 6 8.34313 6 9.99999V37C6 38.6568 7.34315 40 9 40H35C36.6569 40 38 38.6568 38 37V23.9555C38.0901 24.0805 38.1833 24.1814 38.2663 24.2598C38.3425 24.3319 38.4115 24.3863 38.464 24.4242C38.4903 24.4431 38.5127 24.4581 38.53 24.4693C38.5387 24.4749 38.5461 24.4795 38.5522 24.4832L38.5603 24.488L38.5635 24.4899L38.5649 24.4908C38.5649 24.4908 38.5662 24.4915 38.8162 24.0585L38.5662 24.4915C38.8054 24.6296 39.1111 24.5476 39.2492 24.3085C39.3862 24.0712 39.3066 23.7682 39.0716 23.6286L39.0701 23.6277C39.0669 23.6257 39.06 23.6211 39.0493 23.6133C39.0276 23.5977 38.9934 23.5711 38.9532 23.5331C38.8721 23.4564 38.7728 23.3393 38.6996 23.1785C38.5664 22.8859 38.4684 22.3347 38.9963 21.4203L43.3502 13.8792C43.9255 12.8827 43.584 11.6088 42.5876 11.0336L41.3121 10.2972L42.245 8.68134C43.0389 7.30634 42.5678 5.54814 41.1928 4.75428ZM38.1303 20.9203C38.0835 21.0015 38.0401 21.0814 38 21.16V16.0339L40.8121 11.1632L42.0876 11.8996C42.6058 12.1987 42.7833 12.8611 42.4842 13.3792L38.1303 20.9203ZM41.379 8.18134L40.4461 9.79716L37.1989 7.92236L38.1317 6.30653C38.6495 5.40983 39.7961 5.1026 40.6928 5.62031C41.5895 6.13802 41.8967 7.28463 41.379 8.18134ZM39.5128 11.4138L30.9971 26.1633C30.325 27.3274 29.3493 28.2869 28.1741 28.9393L26.7841 29.7109L26.7573 28.1213C26.7347 26.7774 27.0778 25.4526 27.7498 24.2885L36.2655 9.53895L39.5128 11.4138ZM37 17.766L31.8631 26.6633C31.1004 27.9843 29.9931 29.0732 28.6595 29.8136L26.6619 30.9225L26.4888 31.2223C26.3507 31.4614 26.0449 31.5434 25.8058 31.4053C25.5667 31.2672 25.4847 30.9614 25.6228 30.7223L25.7959 30.4225L25.7575 28.1381C25.7453 27.4148 25.8265 26.6964 25.9965 26H13.5C13.2239 26 13 25.7761 13 25.5C13 25.2238 13.2239 25 13.5 25H26.3078C26.4667 24.5831 26.659 24.1779 26.8838 23.7885L27.9164 22H13.5C13.2239 22 13 21.7761 13 21.5C13 21.2238 13.2239 21 13.5 21H28.4938L30.2258 18H13.5C13.2239 18 13 17.7761 13 17.5C13 17.2238 13.2239 17 13.5 17H30.8032L35.8814 8.20419C35.6155 8.07343 35.3163 7.99999 35 7.99999H9C7.89543 7.99999 7 8.89542 7 9.99999V37C7 38.1046 7.89543 39 9 39H35C36.1046 39 37 38.1046 37 37V17.766Z" fill="#ED1C24"/>
</svg>
