<svg xmlns="http://www.w3.org/2000/svg" width="48" height="48" fill="none" xmlns:v="https://vecta.io/nano"><path d="M10.774 2.917a3.21 3.21 0 0 0-1.914 1.081c-.66.775-.896 1.796-.734 2.89l.359 2.419-3.31 3.487c-.197.209-.794.866-.754 1.984l.033.732.003.044.015.139.006.042a2.39 2.39 0 0 0 .726 1.41A19.96 19.96 0 0 0 4 24c0 11.046 8.954 20 20 20s20-8.954 20-20S35.046 4 24 4a19.91 19.91 0 0 0-9.48 2.385l-.063-.432c-.161-1.095-.682-2.004-1.538-2.555a3.21 3.21 0 0 0-2.145-.482z" fill="#fff"/><path d="M12.499 20.5c.232 2.266 1.949 9.463 5.001 14 1.599 2.376 3.924 5.912 6.077 8.5 3.422 0 3.922-.5 5.423-.5l-6.001-5-7.5-10.5c-.724-2.07-3.352-9.934-3-6.5z" fill="#000" fill-opacity=".08"/><path fill-rule="evenodd" d="M4 24a19.96 19.96 0 0 1 1.206-6.855 2.44 2.44 0 0 0 .592.415c.09.044.183.084.28.117A18.97 18.97 0 0 0 5 24l.065 1.583.109-.011.778-.066h.106c.346-.002.794-.005 1.233.179.488.204.759.604.957.896l.043.063.23.32c.227.311.484.662.673 1.059l.241.52c.239.522.46 1.005.762 1.431.143.202.329.304.578.359.255.056.538.056.881.056h.074.054c.147-.001.365-.002.571.04.254.052.542.177.751.471.347.489.393.961.393 1.442 0 .721-.301 1.323-.574 1.822l-.112.203c-.241.436-.44.796-.525 1.198-.151.721-.212 1.445-.212 2.196l.002.266c.003.267.005.456-.034.744A18.92 18.92 0 0 0 24 43a19.05 19.05 0 0 0 4.438-.521c-3.584-2.217-7.222-5.764-10.246-10.259-3.086-4.587-5.015-9.393-5.683-13.607-.005-.032-.007-.064-.006-.095l-.962.381-.859.334c-.149.036-.252-.005-.313-.046-.084-.056-.136-.143-.153-.257l-.03-.201c-.015-.126-.053-.44.204-.624l1.245-.941-.563-3.799-2.223 1.317-.001.001-1.771 1.048c-.196.107-.345.078-.434.034a.41.41 0 0 1-.224-.325l-.005-.053-.031-.68c-.011-.307.132-.459.21-.541.054-.058 2.781-2.933 3.98-4.184l-.501-3.387c-.186-1.254.595-1.644 1.004-1.705s1.234.092 1.42 1.346l.501 3.387 4.991 2.844c.114.065.295.169.374.467l.168.66.01.052c.03.204-.061.323-.119.376-.074.068-.207.14-.426.094-.11-.024-1.126-.276-2.208-.544l-.003-.001-2.285-.565.562 3.799 1.502.534c.279.093.329.241.376.537l.03.203a.37.37 0 0 1-.091.31c-.074.081-.182.122-.303.114-.044-.002-.322-.024-.681-.052l-1.427-.108a.5.5 0 0 1 .032.113c.641 4.048 2.506 8.719 5.525 13.206 3.193 4.746 7.061 8.373 10.752 10.445C37.444 39.663 43 32.48 43 24c0-1.858-.267-3.655-.764-5.352l-.214.249c-.286.327-.638.637-.949.911l-.233.207c-.318.286-.595.49-1.064.629-.689.205-1.261-.141-1.628-.503a2.61 2.61 0 0 1-.197-.218c.011.127.018.258.024.374l.013.218c.018.223.052.39.126.534.259.506.641 1 1.067 1.31.077.056.159.106.259.166l.009.005c.091.055.203.122.308.2.236.175.462.419.567.816.108.411-.024.806-.154 1.084-.102.218-.239.438-.339.598l-.075.121c-.172.286-.367.552-.547.798l-.018.024c-.189.259-.362.497-.51.747l-.21.344c-.233.375-.387.623-.434 1.002l-.008.068c-.05.411-.107.88-.412 1.353-.147.227-.343.406-.519.546-.11.088-.241.181-.351.259l-.134.097c-.003.007-.007.02-.012.044-.015.076-.015.165-.015.312v.008c0 .573-.3 1.015-.61 1.336-.254.263-.564.492-.803.669l-.131.098-.259.191c-.273.2-.494.361-.701.589-.362.399-.823.752-1.223 1.036l-.087.063c-.177.128-.418.302-.671.418-.319.145-.727.233-1.168.052-.488-.201-.714-.666-.833-.928a7.35 7.35 0 0 0-.232-.454l-.075-.139a4.98 4.98 0 0 1-.322-.706c-.249-.717-.185-1.494-.069-2.128.051-.277.137-.543.221-.782l.068-.192v-.001c.061-.17.116-.326.164-.487.125-.424.154-.764.006-1.105-.025-.057-.063-.113-.139-.221l-.004-.006a1.98 1.98 0 0 1-.231-.405c-.12-.304-.157-.639-.184-.877l-.001-.006c-.035-.32-.087-.534-.218-.756-.017-.029-.055-.073-.144-.145-.037-.03-.076-.06-.121-.094l-.022-.017a3.71 3.71 0 0 1-.172-.137l-.154-.135c-.113-.101-.198-.176-.3-.241a4.28 4.28 0 0 0-.872-.432c-.794-.273-1.597-.382-2.482-.451-.088-.007-.191-.013-.301-.018a9.04 9.04 0 0 1-.658-.051c-.346-.045-.72-.138-1.08-.364l-.006-.004c-.289-.181-.809-.508-.924-1.131-.029-.154-.05-.317-.07-.464v-.002-.001l-.019-.14c-.027-.191-.055-.357-.099-.508-.176-.604-.17-1.169-.164-1.689l.002-.272c0-.678.311-1.248.695-1.694s.87-.801 1.297-1.064l.333-.209c.349-.222.72-.457 1.124-.653.301-.146.613-.229.891-.294l.21-.048c.203-.046.382-.087.561-.144.666-.214 1.406-.227 2.054-.138.289.04.547.122.776.203l.223.081c.143.053.272.101.416.144a10.32 10.32 0 0 1 .487.164l.046.016c.169.06.323.114.476.156.116.032.245.05.401.064l.145.012c.116.009.249.019.369.034l.303.038c.605.077 1.155.147 1.738.147.069 0 .144.002.213.004h.008l.218.005c.147.001.266-.007.356-.027a.43.43 0 0 0 .068-.02c0-.011-.001-.027-.003-.048-.065-.507-.151-.744-.451-.944-.177-.118-.368-.227-.573-.341l-.108-.06-.525-.299-.124-.075c-.274-.167-.519-.316-.78-.435-.346-.157-.62-.277-.914-.325-.11-.018-.223-.028-.357-.041l-.009-.001c-.132-.012-.287-.027-.443-.054-.219-.039-.413-.08-.598-.119-.284-.06-.545-.115-.841-.151-.512-.063-1.01-.043-1.567-.021l-.296.011c-.65.023-1.298.113-1.973.211l-.11.017c-.235.038-.569.092-.907.03-.061-.011-.193-.039-.325-.084a1.28 1.28 0 0 1-.226-.1.68.68 0 0 1-.287-.305c-.124-.281-.099-.561-.023-.789.074-.222.202-.419.326-.58a4.89 4.89 0 0 1 .389-.437l.138-.138.149-.153a6.78 6.78 0 0 1 1.375-1.163c.355-.224.758-.376 1.103-.506l.302-.117c.209-.085.249-.147.252-.153l.001-.002.001-.002c.001-.002.002-.01.002-.023 0-.029-.008-.086-.043-.179a1.94 1.94 0 0 0-.145-.284l-.068-.119c-.092-.163-.209-.387-.249-.659-.051-.343.094-.617.299-.798.181-.16.409-.251.594-.308a4.73 4.73 0 0 1 .562-.129l.147-.026a3.45 3.45 0 0 0 .226-.043c.265-.067.53-.092.758-.113l.047-.004c.219-.02.404-.037.584-.074.058-.012.182-.053.378-.128l.383-.151.185-.074C28.954 5.496 26.535 5 24 5c-3.388 0-6.57.887-9.324 2.441l-.155-1.057A19.91 19.91 0 0 1 24 4c11.046 0 20 8.954 20 20 0 2.279-.381 4.469-1.083 6.509a.5.5 0 0 1 .069.159c.703 2.902.864 5.62.43 7.904s-1.474 4.168-3.192 5.324c-2.794 1.879-6.664 1.377-10.56-.71-1.796.529-3.697.813-5.664.813-11.046 0-20-8.954-20-20zm27 18.741c5.033-1.881 9.106-5.731 11.28-10.614.444 2.33.496 4.462.154 6.258-.4 2.103-1.33 3.714-2.768 4.682-2.154 1.449-5.238 1.295-8.666-.326zm10.876-25.195c-.154.16-.291.322-.422.476l-.185.216c-.239.273-.526.526-.829.794l-.269.239c-.258.232-.406.333-.68.414-.18.054-.388-.007-.641-.256-.079-.078-.147-.163-.221-.267l-.076-.108-.18-.252c-.097-.129-.233-.263-.429-.335s-.386-.056-.542-.02c-.336.078-.445.373-.477.491-.038.141-.042.291-.04.402a4.22 4.22 0 0 0 .051.508l.005.031c.02.139.025.255.032.391l.02.325c.022.272.07.592.232.909.31.605.784 1.238 1.37 1.663.116.084.232.154.326.21l.005.003c.101.061.174.105.238.152.109.081.164.149.195.267.017.066.008.191-.093.407-.073.157-.162.299-.256.451l-.108.175a10.03 10.03 0 0 1-.508.738l-.007.01a10.2 10.2 0 0 0-.564.829c-.047.08-.099.162-.153.248-.25.396-.546.866-.622 1.485-.057.465-.09.724-.267.999-.061.094-.16.194-.302.306-.093.074-.179.135-.272.201l-.194.14c-.251.186-.35.444-.39.649-.034.176-.034.36-.033.478v.033c0 .201-.102.406-.329.641-.191.197-.419.366-.657.543l-.002.002-.157.117-.205.151c-.286.208-.612.445-.894.756-.287.316-.675.619-1.062.893l-.113.081c-.18.129-.326.234-.481.305-.165.075-.272.078-.374.037-.087-.036-.178-.144-.302-.416-.084-.185-.182-.367-.271-.532l-.064-.119a4.02 4.02 0 0 1-.26-.563c-.163-.471-.136-1.041-.03-1.62.036-.197.101-.402.181-.632l.059-.166a10.68 10.68 0 0 0 .189-.562c.153-.518.249-1.132-.037-1.787-.068-.155-.161-.288-.223-.377l-.013-.018c-.072-.103-.106-.156-.126-.206-.064-.162-.092-.366-.12-.625-.043-.386-.118-.758-.349-1.152-.109-.186-.26-.321-.376-.415-.051-.041-.104-.082-.148-.115l-.02-.015a2.73 2.73 0 0 1-.125-.099l-.093-.082c-.128-.114-.3-.268-.478-.381a5.27 5.27 0 0 0-1.081-.533c-.914-.314-1.815-.431-2.728-.503-.146-.012-.273-.018-.391-.024-.179-.009-.339-.017-.516-.041-.264-.034-.483-.097-.678-.219a2.04 2.04 0 0 1-.354-.26.39.39 0 0 1-.123-.208c-.024-.127-.04-.252-.059-.392l-.023-.172c-.028-.202-.064-.426-.13-.65-.131-.45-.128-.851-.123-1.37l.002-.311c0-.358.162-.705.453-1.041s.682-.63 1.064-.865l.382-.24c.335-.213.639-.405.986-.574.197-.096.42-.159.684-.221l.173-.04c.212-.048.45-.102.674-.174.484-.155 1.064-.175 1.612-.099.188.026.371.081.578.154l.178.065c.157.058.334.123.507.175.143.043.286.094.442.15l.043.015a7.99 7.99 0 0 0 .544.178c.204.057.405.081.58.096l.191.015c.101.008.19.014.288.027l.291.037c.602.077 1.222.157 1.874.157.053 0 .114.002.19.004l.244.005c.169.001.377-.006.576-.05s.443-.135.626-.35c.197-.231.253-.523.215-.821-.074-.579-.212-1.199-.889-1.65-.213-.142-.433-.267-.642-.383l-.116-.064-.484-.276-.118-.072c-.27-.165-.571-.348-.89-.494l-.006-.003c-.33-.15-.718-.327-1.16-.399a5.8 5.8 0 0 0-.416-.049l-.021-.002c-.136-.012-.25-.024-.36-.043a17.93 17.93 0 0 1-.496-.099c-.321-.067-.669-.139-.996-.179-.599-.073-1.188-.05-1.741-.027l-.277.011c-.711.025-1.41.123-2.082.221l-.161.024c-.236.036-.375.058-.529.029-.017-.003-.046-.009-.081-.018.028-.066.078-.149.155-.248a3.9 3.9 0 0 1 .309-.346l.106-.106.206-.211c.353-.386.74-.72 1.172-.993.261-.165.526-.265.844-.385l.403-.157c.281-.114.585-.29.755-.603.181-.335.143-.699.016-1.035-.066-.175-.164-.343-.235-.466l-.042-.073a1.32 1.32 0 0 1-.116-.247 1.03 1.03 0 0 1 .184-.074 3.77 3.77 0 0 1 .442-.1l.102-.018c.117-.02.245-.042.337-.065a4 4 0 0 1 .606-.088l.056-.005c.207-.019.447-.041.685-.09.15-.031.349-.103.534-.174l.406-.16.002-.001.226-.09c.219-.086.427-.166.604-.224.088-.029.162-.05.222-.064a.91.91 0 0 1 .07-.014l.013-.002c4.331 2.169 7.718 5.944 9.379 10.545zM5.173 26.577l.103-.011.445-.043.162-.013.052-.003.098-.001c.384-.001.63-.001.872.101.201.084.315.243.561.601.107.156.207.292.3.42.205.281.379.517.526.826l.206.444c.246.54.522 1.143.885 1.655.321.452.751.662 1.178.757.368.081.76.08 1.078.079h.149c.162 0 .27 0 .369.02.088.018.115.043.134.07.169.238.209.459.209.863 0 .446-.183.851-.451 1.343l-.102.184c-.237.425-.518.929-.636 1.49-.168.802-.233 1.596-.233 2.402l.001.171c-3.145-2.919-5.299-6.889-5.905-11.352z" fill="#ed1c24"/></svg>