<svg width="48" height="48" viewBox="0 0 48 48" fill="none" xmlns="http://www.w3.org/2000/svg">
<path d="M11 11C11 10.4477 11.4477 10 12 10H35C36.6569 10 38 11.3431 38 13V41C38 42.6569 36.6569 44 35 44H12C11.4477 44 11 43.5523 11 43V11Z" fill="black" fill-opacity="0.08"/>
<path d="M9 7C9 6.44772 9.44772 6 10 6H37C38.6569 6 40 7.34315 40 9V38C40 39.6569 38.6569 41 37 41H10C9.44772 41 9 40.5523 9 40V7Z" fill="white"/>
<path d="M26.5 19C26.7761 19 27 19.2239 27 19.5V21.5C27 21.7761 27.2239 22 27.5 22H29.5C29.7761 22 30 22.2239 30 22.5V23.5C30 23.7761 29.7761 24 29.5 24H27.5C27.2239 24 27 24.2239 27 24.5V26.5C27 26.7761 26.7761 27 26.5 27H25.5C25.2239 27 25 26.7761 25 26.5V24.5C25 24.2239 24.7761 24 24.5 24H22.5C22.2239 24 22 23.7761 22 23.5V22.5C22 22.2239 22.2239 22 22.5 22H24.5C24.7761 22 25 21.7761 25 21.5V19.5C25 19.2239 25.2239 19 25.5 19H26.5Z" fill="#ED1C24"/>
<path fill-rule="evenodd" clip-rule="evenodd" d="M26 31C30.4183 31 34 27.4183 34 23C34 18.5817 30.4183 15 26 15C21.5817 15 18 18.5817 18 23C18 27.4183 21.5817 31 26 31ZM26 30C29.866 30 33 26.866 33 23C33 19.134 29.866 16 26 16C22.134 16 19 19.134 19 23C19 26.866 22.134 30 26 30Z" fill="#ED1C24"/>
<path d="M14 8.5C14 8.77614 13.7761 9 13.5 9C13.2239 9 13 8.77614 13 8.5C13 8.22386 13.2239 8 13.5 8C13.7761 8 14 8.22386 14 8.5Z" fill="#ED1C24"/>
<path d="M14 10.5C14 10.7761 13.7761 11 13.5 11C13.2239 11 13 10.7761 13 10.5C13 10.2239 13.2239 10 13.5 10C13.7761 10 14 10.2239 14 10.5Z" fill="#ED1C24"/>
<path d="M13.5 13C13.7761 13 14 12.7761 14 12.5C14 12.2239 13.7761 12 13.5 12C13.2239 12 13 12.2239 13 12.5C13 12.7761 13.2239 13 13.5 13Z" fill="#ED1C24"/>
<path d="M14 14.5C14 14.7761 13.7761 15 13.5 15C13.2239 15 13 14.7761 13 14.5C13 14.2239 13.2239 14 13.5 14C13.7761 14 14 14.2239 14 14.5Z" fill="#ED1C24"/>
<path d="M13.5 17C13.7761 17 14 16.7761 14 16.5C14 16.2239 13.7761 16 13.5 16C13.2239 16 13 16.2239 13 16.5C13 16.7761 13.2239 17 13.5 17Z" fill="#ED1C24"/>
<path d="M14 18.5C14 18.7761 13.7761 19 13.5 19C13.2239 19 13 18.7761 13 18.5C13 18.2239 13.2239 18 13.5 18C13.7761 18 14 18.2239 14 18.5Z" fill="#ED1C24"/>
<path d="M13.5 21C13.7761 21 14 20.7761 14 20.5C14 20.2239 13.7761 20 13.5 20C13.2239 20 13 20.2239 13 20.5C13 20.7761 13.2239 21 13.5 21Z" fill="#ED1C24"/>
<path d="M14 22.5C14 22.7761 13.7761 23 13.5 23C13.2239 23 13 22.7761 13 22.5C13 22.2239 13.2239 22 13.5 22C13.7761 22 14 22.2239 14 22.5Z" fill="#ED1C24"/>
<path d="M13.5 25C13.7761 25 14 24.7761 14 24.5C14 24.2239 13.7761 24 13.5 24C13.2239 24 13 24.2239 13 24.5C13 24.7761 13.2239 25 13.5 25Z" fill="#ED1C24"/>
<path d="M14 26.5C14 26.7761 13.7761 27 13.5 27C13.2239 27 13 26.7761 13 26.5C13 26.2239 13.2239 26 13.5 26C13.7761 26 14 26.2239 14 26.5Z" fill="#ED1C24"/>
<path d="M13.5 29C13.7761 29 14 28.7761 14 28.5C14 28.2239 13.7761 28 13.5 28C13.2239 28 13 28.2239 13 28.5C13 28.7761 13.2239 29 13.5 29Z" fill="#ED1C24"/>
<path d="M14 30.5C14 30.7761 13.7761 31 13.5 31C13.2239 31 13 30.7761 13 30.5C13 30.2239 13.2239 30 13.5 30C13.7761 30 14 30.2239 14 30.5Z" fill="#ED1C24"/>
<path d="M13.5 33C13.7761 33 14 32.7761 14 32.5C14 32.2239 13.7761 32 13.5 32C13.2239 32 13 32.2239 13 32.5C13 32.7761 13.2239 33 13.5 33Z" fill="#ED1C24"/>
<path d="M14 34.5C14 34.7761 13.7761 35 13.5 35C13.2239 35 13 34.7761 13 34.5C13 34.2239 13.2239 34 13.5 34C13.7761 34 14 34.2239 14 34.5Z" fill="#ED1C24"/>
<path d="M13.5 37C13.7761 37 14 36.7761 14 36.5C14 36.2239 13.7761 36 13.5 36C13.2239 36 13 36.2239 13 36.5C13 36.7761 13.2239 37 13.5 37Z" fill="#ED1C24"/>
<path d="M14 38.5C14 38.7761 13.7761 39 13.5 39C13.2239 39 13 38.7761 13 38.5C13 38.2239 13.2239 38 13.5 38C13.7761 38 14 38.2239 14 38.5Z" fill="#ED1C24"/>
<path fill-rule="evenodd" clip-rule="evenodd" d="M9 7C9 6.44772 9.44772 6 10 6H37C38.6569 6 40 7.34315 40 9V38C40 39.6569 38.6569 41 37 41H10C9.44772 41 9 40.5523 9 40V7ZM10 7H37C38.1046 7 39 7.89543 39 9V38C39 39.1046 38.1046 40 37 40H10L10 7Z" fill="#ED1C24"/>
</svg>
