<svg width="48" height="48" viewBox="0 0 48 48" fill="none" xmlns="http://www.w3.org/2000/svg">
<path d="M10 21C10 19.3431 11.3431 18 13 18H35C36.6569 18 38 19.3431 38 21V40C38 41.6569 36.6569 43 35 43H13C11.3431 43 10 41.6569 10 40V21Z" fill="black" fill-opacity="0.08"/>
<path d="M8 7C8 5.34315 9.34315 4 11 4H37C38.6569 4 40 5.34315 40 7V37C40 38.6569 38.6569 40 37 40H11C9.34315 40 8 38.6569 8 37V7Z" fill="white"/>
<path d="M16 29.5C16 29.2239 16.2239 29 16.5 29H31.5C31.7761 29 32 29.2239 32 29.5C32 29.7761 31.7761 30 31.5 30H16.5C16.2239 30 16 29.7761 16 29.5Z" fill="#ED1C24"/>
<path d="M16.5 32C16.2239 32 16 32.2239 16 32.5C16 32.7761 16.2239 33 16.5 33H27.5C27.7761 33 28 32.7761 28 32.5C28 32.2239 27.7761 32 27.5 32H16.5Z" fill="#ED1C24"/>
<path d="M24 17C25.1046 17 26 16.1046 26 15C26 13.8954 25.1046 13 24 13C22.8954 13 22 13.8954 22 15C22 16.1046 22.8954 17 24 17Z" fill="#ED1C24"/>
<path d="M24 18C21.2888 18 20.2153 19.6719 20.0069 20.5367C20.0021 20.557 20 20.5772 20 20.5981V20.7142C20 20.8721 20.1279 21 20.2858 21H27.7142C27.8721 21 28 20.8721 28 20.7142V20.5981C28 20.5772 27.9979 20.557 27.9931 20.5367C27.7847 19.6719 26.7112 18 24 18Z" fill="#ED1C24"/>
<path fill-rule="evenodd" clip-rule="evenodd" d="M16 17C16 12.5817 19.5817 9 24 9C28.4183 9 32 12.5817 32 17C32 21.4183 28.4183 25 24 25C19.5817 25 16 21.4183 16 17ZM24 24C20.134 24 17 20.866 17 17C17 13.134 20.134 10 24 10C27.866 10 31 13.134 31 17C31 20.866 27.866 24 24 24Z" fill="#ED1C24"/>
<path fill-rule="evenodd" clip-rule="evenodd" d="M8 7C8 5.34315 9.34315 4 11 4H37C38.6569 4 40 5.34315 40 7V37C40 38.6569 38.6569 40 37 40H11C9.34315 40 8 38.6569 8 37V7ZM11 5H37C38.1046 5 39 5.89543 39 7V37C39 38.1046 38.1046 39 37 39H11C9.89543 39 9 38.1046 9 37V7C9 5.89543 9.89543 5 11 5Z" fill="#ED1C24"/>
</svg>
