<svg width="48" height="48" viewBox="0 0 48 48" fill="none" xmlns="http://www.w3.org/2000/svg">
<path d="M29 42C29 43.1046 24.5228 44 19 44C13.4772 44 9 43.1046 9 42C9 40.8954 13.4772 40 19 40C24.5228 40 29 40.8954 29 42Z" fill="black" fill-opacity="0.08"/>
<path fill-rule="evenodd" clip-rule="evenodd" d="M30.0203 6.05444C29.9271 5.7984 29.4706 5.84137 29.414 6.10789C28.7808 9.08664 26.0246 16.8396 14.2253 21.1342L17.9875 31.4708L17.9835 31.4722L14.2213 21.1357L9.90106 22.7081C7.11741 23.7213 5.77959 27.0669 6.91295 30.1807C8.04631 33.2946 11.2217 34.9976 14.0053 33.9844L14.6033 33.7668L17.1418 40.7412C17.5395 41.8341 18.9136 42.337 20.2111 41.8647L21.7773 41.2947C22.2095 41.1374 22.4528 40.7142 22.3203 40.3502L19.3067 32.0704C30.5213 28.3468 37.2908 32.3359 39.6235 34.1584C39.8383 34.3262 40.2155 34.0657 40.1223 33.8097L39.9545 33.3485L40.9995 33.0001L41.9995 31.5001L38.709 22.8408C38.9039 22.7456 39.0882 22.6361 39.2609 22.514C40.6977 21.4986 41.3391 19.613 40.7084 17.8801C40.0776 16.1471 38.3742 15.115 36.6209 15.2606C36.3737 15.2812 36.1255 15.3251 35.8791 15.3938L32.4995 6.5001L30.4995 6.0001L30.261 6.71575L30.0203 6.05444ZM37.0002 16.3027C38.1841 16.3232 39.2878 17.0616 39.7171 18.2409C40.1463 19.4201 39.7754 20.6953 38.8817 21.472L37.0002 16.3027Z" fill="white"/>
<path fill-rule="evenodd" clip-rule="evenodd" d="M39.2144 22.5464C40.6838 21.539 41.3459 19.6316 40.7084 17.88C40.0709 16.1285 38.3376 15.0929 36.5645 15.2657L33.6142 7.15979C33.1419 5.86235 31.7073 5.19338 30.4099 5.66561L29.799 5.88797C29.6383 5.86315 29.4491 5.94246 29.414 6.10785C29.4015 6.1666 29.3882 6.22722 29.374 6.28962C29.3448 6.41784 29.3119 6.55364 29.2749 6.69647C29.2634 6.74094 29.2514 6.78608 29.2391 6.8319C28.3311 10.1982 25.1648 17.1525 14.2253 21.1342L14.2213 21.1356L9.90106 22.708C7.11741 23.7212 5.77959 27.0668 6.91295 30.1807C8.04631 33.2946 11.2217 34.9975 14.0053 33.9844L14.6033 33.7667L17.1418 40.7412C17.5395 41.834 18.9136 42.337 20.2111 41.8647L21.7773 41.2947C22.2095 41.1373 22.4528 40.7142 22.3203 40.3501L20.5584 35.5093C21.277 35.1943 21.6365 34.3707 21.3644 33.623L20.6481 31.6551C30.249 28.9 36.3724 31.8659 39.0241 33.7161C39.063 33.7433 39.1012 33.7702 39.1386 33.7969C39.2588 33.8825 39.3713 33.9654 39.4761 34.0448C39.5271 34.0835 39.5762 34.1214 39.6235 34.1584C39.7571 34.2628 39.9537 34.2013 40.0607 34.0783L40.6705 33.8564C41.9679 33.3842 42.6369 31.9496 42.1647 30.6521L39.2144 22.5464ZM30.2829 6.77601L39.8595 33.0874L40.3285 32.9167C41.1069 32.6334 41.5083 31.7726 41.225 30.9941L32.6745 7.50181C32.3911 6.72334 31.5304 6.32196 30.7519 6.6053L30.2829 6.77601ZM18.3255 32.4119L15.543 33.4247L18.0815 40.3992C18.2376 40.8283 18.9329 41.2658 19.8691 40.925L21.2787 40.412L18.362 32.3987L18.3295 32.4105L18.3255 32.4119ZM13.6236 22.4173L17.0438 31.8142L13.6633 33.0447C11.4949 33.8339 8.83417 32.5354 7.85264 29.8387C6.87112 27.142 8.0747 24.437 10.2431 23.6477L13.6236 22.4173ZM18.9646 31.1303C28.5231 27.948 35.0398 30.178 38.4626 32.1732L29.8006 8.37478C28.4596 12.1075 24.8943 18.0139 15.5025 21.7194L18.9272 31.1287L18.9597 31.1169L18.9646 31.1303Z" fill="#ED1C24"/>
</svg>
