<svg width="64" height="64" viewBox="0 0 64 64" fill="none" xmlns="http://www.w3.org/2000/svg">
<path fill-rule="evenodd" clip-rule="evenodd" d="M23.0655 48.5707C22.4939 50.7046 23.7603 52.8983 25.8941 53.4703L30.3401 54.6623C31.4771 54.9671 32.6323 54.3728 33.6716 53.8205C34.3113 53.4805 35.0322 53.3689 35.7327 53.5567C36.4332 53.7445 37.0017 54.2018 37.3858 54.8162C38.0098 55.8145 38.7131 56.907 39.85 57.2118L44.2967 58.4039C46.4305 58.976 48.6236 57.7098 49.1952 55.5759L59.9489 15.4297C60.5205 13.2958 59.2541 11.1022 57.1203 10.5302L38.7178 5.59656C36.584 5.0245 34.3908 6.29064 33.8192 8.42455L23.0655 48.5707Z" fill="white"/>
<path d="M36.626 18.949C36.7377 18.542 36.4983 18.1214 36.0912 18.0097C35.6842 17.898 35.2636 18.1374 35.1519 18.5445C35.0402 18.9515 35.2796 19.3721 35.6867 19.4838C36.0937 19.5955 36.5143 19.3561 36.626 18.949Z" fill="#ED1C24"/>
<path d="M39.5752 19.7562C39.6869 19.3491 39.4475 18.9286 39.0404 18.8168C38.6334 18.7051 38.2128 18.9446 38.1011 19.3516C37.9894 19.7587 38.2288 20.1792 38.6359 20.2909C39.0429 20.4026 39.4635 20.1632 39.5752 19.7562Z" fill="#ED1C24"/>
<path d="M41.9877 19.6245C42.3948 19.7362 42.6342 20.1567 42.5225 20.5638C42.4107 20.9708 41.9902 21.2103 41.5831 21.0985C41.1761 20.9868 40.9367 20.5663 41.0484 20.1592C41.1601 19.7522 41.5806 19.5127 41.9877 19.6245Z" fill="#ED1C24"/>
<path d="M45.4717 21.3709C45.5834 20.9639 45.344 20.5433 44.9369 20.4316C44.5299 20.3199 44.1093 20.5593 43.9976 20.9664C43.8859 21.3734 44.1253 21.794 44.5324 21.9057C44.9394 22.0174 45.36 21.778 45.4717 21.3709Z" fill="#ED1C24"/>
<path d="M47.8861 21.2392C48.2932 21.3509 48.5326 21.7715 48.4209 22.1785C48.3092 22.5856 47.8886 22.825 47.4816 22.7133C47.0745 22.6016 46.8351 22.181 46.9468 21.774C47.0585 21.3669 47.4791 21.1275 47.8861 21.2392Z" fill="#ED1C24"/>
<path d="M51.3682 22.9861C51.4799 22.5791 51.2405 22.1585 50.8334 22.0468C50.4263 21.9351 50.0058 22.1745 49.8941 22.5816C49.7824 22.9886 50.0218 23.4092 50.4288 23.5209C50.8359 23.6326 51.2564 23.3932 51.3682 22.9861Z" fill="#ED1C24"/>
<path d="M53.7826 22.8537C54.1897 22.9654 54.4291 23.386 54.3174 23.793C54.2057 24.2001 53.7851 24.4395 53.3781 24.3278C52.971 24.2161 52.7316 23.7955 52.8433 23.3885C52.955 22.9814 53.3756 22.742 53.7826 22.8537Z" fill="#ED1C24"/>
<path fill-rule="evenodd" clip-rule="evenodd" d="M23.0649 48.5708C22.4934 50.7047 23.7598 52.8983 25.8935 53.4704L30.3396 54.6624C31.4766 54.9672 32.6317 54.3729 33.6711 53.8206C34.3108 53.4806 35.0317 53.369 35.7322 53.5568C36.4327 53.7446 37.0012 54.2019 37.3852 54.8163C38.0092 55.8146 38.7125 56.9071 39.8495 57.2119L44.2961 58.404C46.4299 58.976 48.6231 57.7099 49.1947 55.576L59.9484 15.4298C60.52 13.2959 59.2536 11.1023 57.1198 10.5302L38.7172 5.59665C36.5834 5.0246 34.3903 6.29073 33.8187 8.42464L23.0649 48.5708ZM26.1523 52.5045C24.5519 52.0754 23.6021 50.4302 24.0308 48.8298L32.2296 18.2219C32.3153 18.4367 32.4972 18.6102 32.7374 18.6762C33.1445 18.7879 33.565 18.5485 33.6768 18.1414C33.7885 17.7344 33.549 17.3138 33.142 17.2021C32.8985 17.1353 32.6502 17.1941 32.466 17.3393L34.7846 8.68359C35.2133 7.08315 36.8581 6.13356 38.4585 6.56259L56.861 11.4962C58.4614 11.9252 59.4112 13.5704 58.9825 15.1709L56.7092 23.6575C56.3202 23.5811 55.9323 23.8169 55.8257 24.2054C55.7183 24.5969 55.9357 25.0009 56.3146 25.1306L48.2288 55.3171C47.8001 56.9175 46.1552 57.8671 44.5549 57.438L40.1082 56.2459C39.7881 56.1601 39.4844 55.9534 39.1652 55.6019C38.8383 55.242 38.5506 54.7942 38.2331 54.2863C37.7312 53.4833 36.964 52.8517 35.9909 52.5908C35.0179 52.33 34.0378 52.4931 33.2017 52.9374C32.673 53.2184 32.1999 53.4623 31.737 53.6104C31.2848 53.7551 30.9185 53.7822 30.5983 53.6964L26.1523 52.5045Z" fill="#ED1C24"/>
<path d="M9.33398 21C9.33398 18.7909 11.1248 17 13.334 17H36.0007C38.2098 17 40.0007 18.7909 40.0007 21V54C40.0007 56.2091 38.2098 58 36.0007 58H13.334C11.1248 58 9.33398 56.2091 9.33398 54V21Z" fill="black" fill-opacity="0.08"/>
<path d="M6 12.3333C6 11.597 6.59695 11 7.33333 11H36.6667C39.6122 11 42 13.3878 42 16.3333V49.6667C42 52.6122 39.6122 55 36.6667 55H7.33333C6.59695 55 6 54.403 6 53.6667V12.3333Z" fill="#ED1C24"/>
<path d="M24.9125 21.5103C25.1454 21.5625 25.3035 21.7741 25.3035 22.0127V27.4666C25.3035 27.7611 25.0647 27.9999 24.7702 27.9999H21.8369C21.5423 27.9999 21.3035 27.7611 21.3035 27.4666V22.0127C21.3035 21.7741 21.4617 21.5625 21.6945 21.5103C22.2123 21.3944 22.7508 21.3333 23.3035 21.3333C23.8563 21.3333 24.3947 21.3944 24.9125 21.5103Z" fill="white"/>
<path d="M30.0234 27.9999C30.3369 27.9999 30.5844 27.7302 30.5315 27.4212C30.1868 25.4058 29.0195 23.6711 27.3876 22.5748C27.0567 22.3526 26.6369 22.6059 26.6369 23.0045V27.4666C26.6369 27.7611 26.8756 27.9999 27.1702 27.9999H30.0234Z" fill="white"/>
<path d="M19.2195 22.5748C19.5503 22.3526 19.9702 22.6059 19.9702 23.0045V27.4666C19.9702 27.7611 19.7314 27.9999 19.4369 27.9999H16.5836C16.2702 27.9999 16.0226 27.7302 16.0755 27.4212C16.4203 25.4058 17.5875 23.6711 19.2195 22.5748Z" fill="white"/>
<path d="M16.0755 29.9119C16.0226 29.603 16.2702 29.3333 16.5836 29.3333H19.4369C19.7314 29.3333 19.9702 29.572 19.9702 29.8666V34.3287C19.9702 34.7272 19.5503 34.9806 19.2195 34.7583C17.5875 33.6621 16.4203 31.9274 16.0755 29.9119Z" fill="white"/>
<path d="M21.3035 35.3205C21.3035 35.5591 21.4617 35.7707 21.6945 35.8229C22.2123 35.9388 22.7508 35.9999 23.3035 35.9999C23.8563 35.9999 24.3947 35.9388 24.9125 35.8229C25.1454 35.7707 25.3035 35.5591 25.3035 35.3205V29.8666C25.3035 29.572 25.0647 29.3333 24.7702 29.3333H21.8369C21.5423 29.3333 21.3035 29.572 21.3035 29.8666V35.3205Z" fill="white"/>
<path d="M27.3876 34.7583C27.0567 34.9806 26.6369 34.7272 26.6369 34.3287V29.8666C26.6369 29.572 26.8756 29.3333 27.1702 29.3333H30.0234C30.3369 29.3333 30.5844 29.603 30.5315 29.9119C30.1868 31.9274 29.0195 33.6621 27.3876 34.7583Z" fill="white"/>
<path d="M17.5 40C17.2239 40 17 40.2239 17 40.5C17 40.7761 17.2239 41 17.5 41H28.5C28.7761 41 29 40.7761 29 40.5C29 40.2239 28.7761 40 28.5 40H17.5Z" fill="white"/>
</svg>
