<svg width="48" height="48" viewBox="0 0 48 48" fill="none" xmlns="http://www.w3.org/2000/svg">
<path d="M37 44.5C37 45.3284 31.1797 46 24 46C16.8203 46 11 45.3284 11 44.5C11 43.6716 16.8203 43 24 43C31.1797 43 37 43.6716 37 44.5Z" fill="black" fill-opacity="0.08"/>
<path d="M29.3535 12.6464L35.9999 6L42.6464 12.6464C42.8416 12.8417 42.8416 13.1583 42.6464 13.3536L41.8535 14.1464C41.6582 14.3417 41.3416 14.3417 41.1464 14.1464L36.9999 10V20.5C36.9999 20.7761 36.7761 21 36.4999 21H35.4999C35.2238 21 34.9999 20.7761 34.9999 20.5V10L30.8535 14.1464C30.6582 14.3417 30.3416 14.3417 30.1464 14.1464L29.3535 13.3536C29.1582 13.1583 29.1582 12.8417 29.3535 12.6464Z" fill="white"/>
<path d="M2.84473 9.18047C2.04473 9.58047 1.9574 10.4458 2.01373 10.8284C2.26684 16.3969 5.12507 28.292 14 38.2721C14.0462 38.2398 15.6594 39.6083 17.3532 41.0453C19.028 42.466 20.782 43.954 21.1775 44.2204H24.6592C25.6858 44.2204 26.4063 43.3186 27.0322 42.535C27.1374 42.4034 27.2399 42.275 27.3407 42.1549L30.7486 36.5H41.5C42.8807 36.5 44 35.3807 44 34C44 32.6193 42.8807 31.5 41.5 31.5H39.7338C36.5226 27.5251 29.0352 26.2979 24.2969 26.2979L18.3887 25.0091L16.5915 22.0655C15.507 20.2993 13.307 19.5556 11.3859 20.2683L9 21.1669C9.00836 21.1905 9.01671 21.214 9.02504 21.2375L8.7045 21.3977C7.30051 18.5399 6.57003 16.2793 6.15863 14.5449C6.60304 15.9675 7.93095 17 9.5 17C11.433 17 13 15.433 13 13.5C13 11.567 11.433 10 9.5 10C7.567 10 6 11.567 6 13.5C6 13.6681 6.01185 13.8335 6.03477 13.9953C5.82324 13.0045 5.71654 12.2075 5.63363 11.5883C5.54378 10.9172 5.48187 10.4548 5.34473 10.1805C4.89758 9.28601 3.84473 8.68047 2.84473 9.18047Z" fill="white"/>
<path fill-rule="evenodd" clip-rule="evenodd" d="M35.9999 4.58569L43.3535 11.9392C43.9393 12.525 43.9393 13.4748 43.3535 14.0606L42.5606 14.8535C41.9748 15.4392 41.025 15.4392 40.4393 14.8535L37.9999 12.4141V20.4999C37.9999 21.3283 37.3284 21.9999 36.4999 21.9999H35.4999C34.6715 21.9999 33.9999 21.3283 33.9999 20.4999V12.4141L31.5606 14.8535C30.9748 15.4392 30.025 15.4392 29.4393 14.8535L28.6464 14.0606C28.0606 13.4748 28.0606 12.525 28.6464 11.9392L35.9999 4.58569ZM30.1464 14.1464C30.3416 14.3416 30.6582 14.3416 30.8535 14.1464L34.9999 9.99991V20.4999C34.9999 20.776 35.2238 20.9999 35.4999 20.9999H36.4999C36.7761 20.9999 36.9999 20.7761 36.9999 20.4999V9.99991L41.1464 14.1464C41.3416 14.3416 41.6582 14.3416 41.8535 14.1464L42.6464 13.3535C42.8416 13.1582 42.8416 12.8416 42.6464 12.6464L35.9999 5.99991L29.3535 12.6464C29.1582 12.8416 29.1582 13.1582 29.3535 13.3535L30.1464 14.1464Z" fill="#ED1C24"/>
<path fill-rule="evenodd" clip-rule="evenodd" d="M16.9121 34.2524C18.1167 33.2741 19.3991 32.318 20.4877 31.6093C21.4258 30.9985 22.1563 30.5862 22.952 30.3317C23.7509 30.0761 24.5831 29.9897 25.7135 29.979L25.7182 29.979L27.6161 29.979C28.6592 29.979 29.6454 30.3522 30.4155 31H41.5C43.1569 31 44.5 32.3431 44.5 34C44.5 35.6569 43.1569 37 41.5 37H31.083L27.8852 42.3298C26.8912 43.9864 25.1009 45 23.169 45H22.7252C21.4977 45 20.2941 44.5931 19.3386 43.8011C18.2478 42.8969 16.9613 41.777 15.8674 40.7073C15.3206 40.1726 14.8167 39.6455 14.4078 39.1605C14.1451 38.8489 13.8852 38.5422 13.6247 38.2463C4.79717 28.218 1.93315 16.3338 1.67055 10.693C1.60729 10.197 1.71632 9.08261 2.77639 8.55258C4.10536 7.88809 5.42201 8.72559 5.94722 9.77622C6.03968 9.96116 6.09689 10.177 6.14067 10.3959C6.18522 10.6187 6.22224 10.8797 6.26111 11.1673L6.28444 11.341C6.29662 11.4319 6.30932 11.5268 6.32268 11.6247C7.01902 10.5494 8.22927 9.83789 9.60572 9.83789C11.7643 9.83789 13.5142 11.5878 13.5142 13.7463C13.5142 15.9049 11.7643 17.6548 9.60572 17.6548C8.89858 17.6548 8.2353 17.467 7.66304 17.1386C8.05699 18.2416 8.57021 19.4817 9.24537 20.8675L11.3827 20.0314C13.3358 19.2674 15.5535 20.0543 16.5884 21.8784L17.6052 23.6708C17.784 23.9858 18.0341 24.2546 18.3355 24.4556C18.8884 24.8242 19.5217 25.0548 20.1821 25.1282L28.0561 26.0031C28.3305 26.0336 28.5283 26.2808 28.4978 26.5553C28.4673 26.8297 28.2201 27.0275 27.9456 26.997L20.0717 26.1221C19.2523 26.0311 18.4667 25.7449 17.7808 25.2876C17.3494 25 16.9913 24.6152 16.7355 24.1642L15.7186 22.3718C14.9291 20.9801 13.2371 20.3798 11.747 20.9627L9.6488 21.7835C11.246 25.797 13.6361 30.1348 16.9121 34.2524ZM3.2236 9.447C3.89463 9.11149 4.68368 9.48506 5.05276 10.2234C5.08531 10.2885 5.12184 10.4008 5.16009 10.592C5.19758 10.7795 5.23087 11.0107 5.27012 11.3012L5.29335 11.4742C5.36729 12.0266 5.46212 12.7351 5.6347 13.598C5.75778 14.2134 5.89488 14.7884 6.06372 15.4009C6.52806 17.0854 7.27861 19.1731 8.54572 21.7095C10.1777 25.9373 12.6742 30.5354 16.1416 34.8902C15.2585 35.6355 14.4549 36.3653 13.8513 36.9797C5.59547 27.2653 2.91071 15.954 2.66848 10.625L2.66734 10.5999L2.66367 10.5749C2.62183 10.2908 2.70375 9.70693 3.2236 9.447ZM31.6296 36H41.5C42.6046 36 43.5 35.1046 43.5 34C43.5 32.8954 42.6046 32 41.5 32H31.2891C31.3686 32.1255 31.4421 32.2558 31.5092 32.3907C32.0751 33.5284 32.1107 34.846 31.6296 36ZM7.00368 15.0472C6.88198 14.5996 6.78164 14.1832 6.6977 13.7969C6.69741 13.7801 6.69727 13.7632 6.69727 13.7463C6.69727 12.14 7.99942 10.8379 9.60572 10.8379C11.212 10.8379 12.5142 12.14 12.5142 13.7463C12.5142 15.3526 11.212 16.6548 9.60572 16.6548C8.46701 16.6548 7.48115 16.0004 7.00368 15.0472ZM30.6139 32.836C30.048 31.6983 28.8868 30.979 27.6161 30.979H25.7206C24.634 30.9894 23.917 31.0729 23.2566 31.2841C22.5926 31.4966 21.9533 31.8484 21.0333 32.4473C18.9218 33.822 16.0566 36.159 14.5557 37.6895C14.6992 37.9222 14.906 38.2 15.1723 38.5159C15.5532 38.9677 16.0327 39.4703 16.5665 39.9923C17.6337 41.0359 18.8976 42.1367 19.9768 43.0312C20.7426 43.666 21.7171 44 22.7252 44H23.169C24.7497 44 26.2144 43.1707 27.0277 41.8153L30.4871 36.0496C31.0747 35.0702 31.1225 33.8587 30.6139 32.836Z" fill="#ED1C24"/>
</svg>
